# Blender v3.2.0 OBJ File: 'levels.blend'
# www.blender.org
mtllib level1.mtl
o Circle
v 0.000000 0.507500 0.862750
v -0.194212 0.468869 0.862750
v -0.358857 0.358857 0.862750
v -0.468869 0.194212 0.862750
v -0.507500 -0.000000 0.862750
v -0.468869 -0.194212 0.862750
v -0.358857 -0.358857 0.862750
v -0.194212 -0.468869 0.862750
v 0.000000 -0.507500 0.862750
v 0.194212 -0.468869 0.862750
v 0.358857 -0.358857 0.862750
v 0.468869 -0.194212 0.862750
v 0.507500 0.000000 0.862750
v 0.468869 0.194212 0.862750
v 0.358857 0.358857 0.862750
v 0.194212 0.468869 0.862750
v -0.239177 0.577425 1.062500
v 0.000000 0.625000 1.062500
v -0.441942 0.441942 1.062500
v -0.577425 0.239177 1.062500
v -0.625000 -0.000000 1.062500
v -0.577425 -0.239177 1.062500
v -0.441942 -0.441942 1.062500
v -0.239177 -0.577425 1.062500
v 0.000000 -0.625000 1.062500
v 0.239177 -0.577425 1.062500
v 0.441942 -0.441942 1.062500
v 0.577425 -0.239177 1.062500
v 0.625000 0.000000 1.062500
v 0.577425 0.239177 1.062500
v 0.441942 0.441942 1.062500
v 0.239177 0.577425 1.062500
v 0.000000 0.558250 0.842750
v -0.213633 0.515756 0.842750
v -0.394742 0.394742 0.842750
v -0.515756 0.213633 0.842750
v -0.558250 -0.000000 0.842750
v -0.515756 -0.213633 0.842750
v -0.394742 -0.394742 0.842750
v -0.213633 -0.515756 0.842750
v 0.000000 -0.558250 0.842750
v 0.213633 -0.515756 0.842750
v 0.394742 -0.394742 0.842750
v 0.515756 -0.213633 0.842750
v 0.558250 0.000000 0.842750
v 0.515756 0.213633 0.842750
v 0.394742 0.394742 0.842750
v 0.213633 0.515756 0.842750
v 0.000000 0.456750 0.897750
v -0.174791 0.421982 0.897750
v -0.322971 0.322971 0.897750
v -0.421982 0.174791 0.897750
v -0.456750 -0.000000 0.897750
v -0.421982 -0.174791 0.897750
v -0.322971 -0.322971 0.897750
v -0.174791 -0.421982 0.897750
v 0.000000 -0.456750 0.897750
v 0.174791 -0.421982 0.897750
v 0.322971 -0.322971 0.897750
v 0.421982 -0.174791 0.897750
v 0.456750 0.000000 0.897750
v 0.421982 0.174791 0.897750
v 0.322971 0.322971 0.897750
v 0.174791 0.421982 0.897750
v -0.468869 0.194212 0.862750
v -0.507500 -0.000000 0.862750
v -0.515756 0.213633 0.842750
v -0.558250 -0.000000 0.842750
vt 0.000000 0.000000
vt 0.500000 0.000000
vt 0.500000 0.980000
vt 0.000000 0.980000
vt 0.500000 0.000000
vt 1.000000 0.000000
vt 1.000000 0.980000
vt 0.500000 0.980000
vt 1.000000 0.000000
vt 1.000000 0.980000
vt 0.000000 0.000000
vt 0.500000 0.000000
vt 0.500000 0.980000
vt 0.000000 0.980000
vt 0.000000 0.000000
vt 0.500000 0.000000
vt 0.500000 0.980000
vt 0.000000 0.980000
vt 1.000000 0.000000
vt 1.000000 0.980000
vt 1.000000 0.000000
vt 1.000000 0.980000
vt 0.000000 0.000000
vt 0.500000 0.000000
vt 0.500000 0.980000
vt 0.000000 0.980000
vt 0.000000 0.000000
vt 0.500000 0.000000
vt 0.500000 0.980000
vt 0.000000 0.980000
vt 1.000000 0.000000
vt 1.000000 0.980000
vt 1.000000 0.000000
vt 1.000000 0.980000
vt 0.000000 0.000000
vt 0.500000 0.000000
vt 0.500000 0.980000
vt 0.000000 0.980000
vt 0.500000 0.000000
vt 1.000000 0.000000
vt 1.000000 0.980000
vt 0.500000 0.980000
vt 0.000000 0.000000
vt 0.000000 0.980000
vt 1.000000 0.000000
vt 1.000000 0.980000
vt 0.000000 0.000000
vt 0.000000 0.980000
vt 0.000000 0.000000
vt 0.500000 0.000000
vt 0.500000 0.980000
vt 0.000000 0.980000
vt 0.500000 0.000000
vt 1.000000 0.000000
vt 1.000000 0.980000
vt 0.500000 0.980000
vt 0.500000 0.000000
vt 1.000000 0.000000
vt 1.000000 0.980000
vt 0.500000 0.980000
vt 0.000000 0.000000
vt 0.000000 0.980000
vt 0.500000 0.000000
vt 1.000000 0.000000
vt 1.000000 0.980000
vt 0.500000 0.980000
vt 0.000000 0.000000
vt 0.000000 0.980000
vt 0.500000 0.000000
vt 1.000000 0.000000
vt 1.000000 0.980000
vt 0.500000 0.980000
vt 0.000000 0.000000
vt 0.000000 0.980000
vt 0.000000 0.000000
vt 0.000000 0.980000
vt 0.500000 0.000000
vt 1.000000 0.000000
vt 1.000000 0.980000
vt 0.500000 0.980000
vt 0.500000 0.000000
vt 1.000000 0.000000
vt 1.000000 0.980000
vt 0.500000 0.980000
vt 0.000000 0.000000
vt 0.000000 0.980000
vt 0.500000 0.000000
vt 1.000000 0.000000
vt 1.000000 0.980000
vt 0.500000 0.980000
vt 1.000000 0.000000
vt 1.000000 0.980000
vt 0.000000 0.000000
vt 0.000000 0.980000
vt 0.500000 0.980000
vt 0.000000 0.980000
vt 1.000000 0.980000
vt 0.500000 0.980000
vt 1.000000 0.980000
vt 0.500000 0.980000
vt 0.000000 0.980000
vt 0.500000 0.980000
vt 0.000000 0.980000
vt 1.000000 0.980000
vt 1.000000 0.980000
vt 0.500000 0.980000
vt 0.000000 0.980000
vt 0.500000 0.980000
vt 0.000000 0.980000
vt 1.000000 0.980000
vt 1.000000 0.980000
vt 0.500000 0.980000
vt 0.000000 0.980000
vt 1.000000 0.980000
vt 0.500000 0.980000
vt 0.000000 0.980000
vt 1.000000 0.980000
vt 0.000000 0.980000
vt 0.000000 0.000000
vt 0.500000 0.000000
vt 0.500000 0.980000
vt 0.000000 0.980000
vn 0.4812 -0.7202 -0.4997
vn -0.7202 0.4812 -0.4997
vn 0.7202 -0.4812 -0.4997
vn -0.8495 0.1690 -0.4997
vn 0.8495 -0.1690 -0.4997
vn -0.8495 -0.1690 -0.4997
vn 0.8495 0.1690 -0.4997
vn -0.7202 -0.4812 -0.4997
vn 0.7202 0.4812 -0.4997
vn -0.4812 -0.7202 -0.4997
vn 0.4812 0.7202 -0.4997
vn -0.1690 -0.8495 -0.4997
vn -0.1690 0.8495 -0.4997
vn 0.1690 0.8495 -0.4997
vn 0.1690 -0.8495 -0.4997
vn -0.4812 0.7202 -0.4997
vn 0.3100 0.2071 0.9279
vn -0.2071 -0.3100 0.9279
vn 0.2071 0.3100 0.9279
vn -0.0727 -0.3657 0.9279
vn -0.0727 0.3657 0.9279
vn 0.0727 0.3657 0.9279
vn 0.0727 -0.3657 0.9279
vn -0.2071 0.3100 0.9279
vn 0.2071 -0.3100 0.9279
vn -0.3100 0.2071 0.9279
vn 0.3100 -0.2071 0.9279
vn 0.3657 -0.0727 0.9279
vn -0.3657 -0.0727 0.9279
vn 0.3657 0.0727 0.9279
vn -0.3100 -0.2071 0.9279
vn 0.3196 -0.4783 0.8180
vn -0.4783 0.3196 0.8180
vn 0.4783 -0.3196 0.8180
vn -0.5641 0.1122 0.8180
vn 0.5641 -0.1122 0.8180
vn -0.5641 -0.1122 0.8180
vn 0.5641 0.1122 0.8180
vn -0.4783 -0.3196 0.8180
vn 0.4783 0.3196 0.8180
vn -0.3196 -0.4783 0.8180
vn 0.3196 0.4783 0.8180
vn -0.1122 -0.5641 0.8180
vn -0.1122 0.5641 0.8180
vn 0.1122 0.5641 0.8180
vn 0.1122 -0.5641 0.8180
vn -0.3196 0.4783 0.8180
vn -0.3657 0.0727 0.9279
usemtl Material.001
s off
f 10/1/1 11/2/1 27/3/1 26/4/1
f 3/5/2 4/6/2 20/7/2 19/8/2
f 11/2/3 12/9/3 28/10/3 27/3/3
f 4/11/4 5/12/4 21/13/4 20/14/4
f 12/15/5 13/16/5 29/17/5 28/18/5
f 5/12/6 6/19/6 22/20/6 21/13/6
f 13/16/7 14/21/7 30/22/7 29/17/7
f 6/23/8 7/24/8 23/25/8 22/26/8
f 14/27/9 15/28/9 31/29/9 30/30/9
f 7/24/10 8/31/10 24/32/10 23/25/10
f 15/28/11 16/33/11 32/34/11 31/29/11
f 8/35/12 9/36/12 25/37/12 24/38/12
f 1/39/13 2/40/13 17/41/13 18/42/13
f 16/43/14 1/39/14 18/42/14 32/44/14
f 9/36/15 10/45/15 26/46/15 25/37/15
f 2/47/16 3/5/16 19/8/16 17/48/16
f 15/49/17 14/50/17 46/51/17 47/52/17
f 8/53/18 7/54/18 39/55/18 40/56/18
f 16/57/19 15/58/19 47/59/19 48/60/19
f 9/61/20 8/53/20 40/56/20 41/62/20
f 2/63/21 1/64/21 33/65/21 34/66/21
f 1/67/22 16/57/22 48/60/22 33/68/22
f 10/69/23 9/70/23 41/71/23 42/72/23
f 3/73/24 2/63/24 34/66/24 35/74/24
f 11/75/25 10/69/25 42/72/25 43/76/25
f 4/77/26 3/78/26 35/79/26 36/80/26
f 12/81/27 11/82/27 43/83/27 44/84/27
f 13/85/28 12/81/28 44/84/28 45/86/28
f 6/87/29 5/88/29 37/89/29 38/90/29
f 14/50/30 13/91/30 45/92/30 46/51/30
f 7/93/31 6/87/31 38/90/31 39/94/31
f 10/1/32 11/2/32 59/95/32 58/96/32
f 3/5/33 4/6/33 52/97/33 51/98/33
f 11/2/34 12/9/34 60/99/34 59/95/34
f 4/11/35 5/12/35 53/100/35 52/101/35
f 12/15/36 13/16/36 61/102/36 60/103/36
f 5/12/37 6/19/37 54/104/37 53/100/37
f 13/16/38 14/21/38 62/105/38 61/102/38
f 6/23/39 7/24/39 55/106/39 54/107/39
f 14/27/40 15/28/40 63/108/40 62/109/40
f 7/24/41 8/31/41 56/110/41 55/106/41
f 15/28/42 16/33/42 64/111/42 63/108/42
f 8/35/43 9/36/43 57/112/43 56/113/43
f 1/39/44 2/40/44 50/114/44 49/115/44
f 16/43/45 1/39/45 49/115/45 64/116/45
f 9/36/46 10/45/46 58/117/46 57/112/46
f 2/47/47 3/5/47 51/98/47 50/118/47
f 66/119/48 65/120/48 67/121/48 68/122/48
